M48
;DRILL file {PCBnew (2010-00-09 BZR 23xx)-stable} date Mon 07 Nov 2011 19:43:05 CET
;FORMAT={-.-/ absolute / inch / decimal}
R,T
VER,1
FMAT,2
INCH,TZ
TCST,OFF
ICI,OFF
ATC,ON
T1C0.032
T2C0.035
T3C0.040
T4C0.120
%
M47
G05
M72
T1
X2.050Y-8.950
T2
X1.950Y-10.075
X1.970Y-5.290
X1.970Y-5.370
X1.970Y-5.450
X1.970Y-5.640
X1.975Y-5.200
X2.030Y-4.815
X2.040Y-5.255
X2.050Y-5.370
X2.070Y-4.390
X2.150Y-4.465
X2.155Y-4.665
X2.160Y-7.960
X2.220Y-6.980
X2.220Y-7.160
X2.230Y-5.540
X2.260Y-4.960
X2.260Y-6.560
X2.260Y-6.840
X2.277Y-4.602
X2.280Y-6.460
X2.280Y-6.700
X2.280Y-7.060
X2.290Y-4.705
X2.300Y-6.320
X2.310Y-9.490
X2.320Y-5.000
X2.335Y-6.070
X2.360Y-4.600
X2.370Y-5.840
X2.370Y-9.560
X2.410Y-9.700
X2.450Y-4.590
X2.470Y-9.640
X2.470Y-10.280
X2.485Y-4.675
X2.520Y-1.065
X2.520Y-3.470
X2.520Y-7.980
X2.520Y-8.090
X2.530Y-3.760
X2.530Y-8.290
X2.530Y-9.090
X2.530Y-9.180
X2.530Y-9.270
X2.530Y-9.690
X2.530Y-10.490
X2.535Y-1.670
X2.540Y-1.370
X2.540Y-4.280
X2.540Y-8.400
X2.550Y-1.970
X2.550Y-2.270
X2.550Y-2.570
X2.550Y-8.590
X2.560Y-2.870
X2.560Y-3.160
X2.560Y-3.300
X2.560Y-3.590
X2.560Y-3.890
X2.560Y-4.080
X2.560Y-4.200
X2.560Y-7.680
X2.560Y-7.790
X2.560Y-8.690
X2.565Y-1.770
X2.565Y-2.090
X2.570Y-8.860
X2.570Y-8.950
X2.570Y-9.900
X2.575Y-1.190
X2.580Y-2.390
X2.580Y-2.690
X2.580Y-2.990
X2.585Y-1.470
X2.590Y-6.825
X2.600Y-9.060
X2.610Y-5.955
X2.690Y-9.070
X2.800Y-4.210
X2.810Y-6.705
X2.887Y-6.012
X2.900Y-9.970
X3.050Y-6.000
X3.090Y-6.060
X3.690Y-1.870
X3.690Y-2.760
X3.690Y-3.510
X3.690Y-4.410
X3.690Y-5.310
X3.690Y-6.210
X3.690Y-7.110
X3.690Y-8.010
X3.690Y-8.910
X3.690Y-9.815
X3.790Y-1.900
X3.790Y-2.790
X3.790Y-3.530
X3.790Y-4.430
X3.790Y-5.330
X3.790Y-6.230
X3.790Y-7.130
X3.790Y-8.030
X3.790Y-8.930
X3.790Y-9.830
X4.020Y-9.340
X4.020Y-9.520
X4.020Y-9.700
X4.020Y-9.830
X4.050Y-10.360
X4.100Y-9.130
T3
X2.050Y-9.050
X2.080Y-4.060
X2.180Y-4.060
X2.210Y-7.320
X2.300Y-4.060
X2.310Y-7.320
X2.400Y-4.060
X2.410Y-7.320
X2.510Y-6.040
X2.510Y-6.140
X2.510Y-6.240
X2.510Y-7.320
X2.620Y-6.040
X2.620Y-6.140
X2.620Y-6.240
T4
X2.150Y-1.070
X2.150Y-2.320
X2.150Y-3.830
X2.150Y-7.650
X2.150Y-8.480
X2.150Y-10.450
X3.910Y-1.070
X3.910Y-10.430
T0
M30
