M48
;DRILL file {PCBnew (2010-00-09 BZR 23xx)-stable} date Die 22 Nov 2011 18:31:54 CET
;FORMAT={-.-/ absolute / inch / decimal}
R,T
VER,1
FMAT,2
INCH,TZ
TCST,OFF
ICI,OFF
ATC,ON
T1C0.000
T2C0.032
T3C0.035
T4C0.040
T5C0.120
%
M47
G05
M72
T1
X2.900Y-9.970
T2
X2.050Y-8.950
T3
X1.950Y-10.075
X1.970Y-5.290
X1.970Y-5.370
X1.970Y-5.450
X1.970Y-5.640
X1.975Y-5.200
X2.030Y-4.815
X2.040Y-5.255
X2.050Y-5.370
X2.050Y-6.985
X2.050Y-7.135
X2.060Y-7.220
X2.070Y-4.390
X2.080Y-6.915
X2.115Y-6.850
X2.140Y-6.510
X2.152Y-4.592
X2.152Y-5.552
X2.155Y-4.665
X2.160Y-7.960
X2.170Y-6.445
X2.200Y-6.380
X2.230Y-4.370
X2.290Y-4.705
X2.294Y-6.240
X2.295Y-4.585
X2.300Y-4.060
X2.310Y-9.490
X2.315Y-4.365
X2.320Y-5.000
X2.370Y-5.840
X2.370Y-9.560
X2.385Y-4.512
X2.390Y-3.430
X2.395Y-4.105
X2.400Y-4.015
X2.400Y-4.210
X2.400Y-4.588
X2.405Y-4.280
X2.410Y-9.700
X2.440Y-3.610
X2.445Y-3.495
X2.450Y-4.682
X2.455Y-3.195
X2.460Y-3.125
X2.460Y-3.267
X2.470Y-9.640
X2.470Y-10.280
X2.492Y-3.342
X2.504Y-6.010
X2.520Y-1.065
X2.520Y-6.080
X2.520Y-7.980
X2.520Y-8.090
X2.530Y-8.290
X2.530Y-9.090
X2.530Y-9.180
X2.530Y-9.270
X2.530Y-9.690
X2.530Y-10.490
X2.535Y-1.670
X2.540Y-1.370
X2.540Y-8.400
X2.550Y-1.970
X2.550Y-2.270
X2.550Y-2.570
X2.550Y-8.590
X2.560Y-7.680
X2.560Y-7.790
X2.560Y-8.690
X2.565Y-1.770
X2.565Y-2.090
X2.570Y-8.860
X2.570Y-8.950
X2.570Y-9.900
X2.575Y-1.190
X2.580Y-2.390
X2.585Y-1.470
X2.590Y-6.825
X2.600Y-9.060
X2.610Y-5.955
X2.670Y-4.765
X2.690Y-9.070
X2.805Y-2.765
X2.810Y-6.560
X2.810Y-7.260
X2.860Y-3.370
X2.887Y-6.012
X3.050Y-6.000
X3.090Y-6.060
X3.690Y-1.870
X3.690Y-2.760
X3.690Y-3.510
X3.690Y-4.410
X3.690Y-5.310
X3.690Y-6.210
X3.690Y-7.110
X3.690Y-8.010
X3.690Y-8.910
X3.690Y-9.815
X3.790Y-1.900
X3.790Y-2.790
X3.790Y-3.530
X3.790Y-4.430
X3.790Y-5.330
X3.790Y-6.230
X3.790Y-7.130
X3.790Y-8.030
X3.790Y-8.930
X3.790Y-9.830
X4.020Y-9.340
X4.020Y-9.520
X4.020Y-9.700
X4.020Y-9.830
X4.097Y-10.127
X4.100Y-9.130
T4
X2.000Y-3.850
X2.050Y-9.050
X2.100Y-3.850
X2.300Y-3.850
X2.310Y-6.650
X2.310Y-6.750
X2.310Y-6.850
X2.400Y-3.850
X2.620Y-6.040
X2.620Y-6.140
X2.620Y-6.240
T5
X2.150Y-1.070
X2.150Y-10.450
X3.910Y-1.070
X3.910Y-10.450
T0
M30
